<mxfile host="app.diagrams.net" agent="Mozilla/5.0 (Windows NT 10.0; Win64; x64) AppleWebKit/537.36 (KHTML, like Gecko) Chrome/139.0.0.0 Safari/537.36 Edg/139.0.0.0" version="28.0.9">
  <diagram name="PÃ¡gina-1" id="KCU6YaefP2F7N_ar2XKN">
    <mxGraphModel dx="856" dy="468" grid="0" gridSize="10" guides="1" tooltips="1" connect="1" arrows="1" fold="1" page="1" pageScale="1" pageWidth="827" pageHeight="1169" math="1" shadow="0">
      <root>
        <mxCell id="0" />
        <mxCell id="1" parent="0" />
        <mxCell id="9KkhQaMvhnV2v5A0AEYg-2" value="" style="shape=partialRectangle;whiteSpace=wrap;html=1;bottom=1;right=1;left=1;top=0;fillColor=none;routingCenterX=-0.5;rotation=-180;" vertex="1" parent="1">
          <mxGeometry x="231" y="69" width="40" height="70" as="geometry" />
        </mxCell>
        <mxCell id="9KkhQaMvhnV2v5A0AEYg-3" value="" style="shape=partialRectangle;whiteSpace=wrap;html=1;bottom=1;right=1;left=1;top=0;fillColor=none;routingCenterX=-0.5;rotation=0;" vertex="1" parent="1">
          <mxGeometry x="271" y="89" width="40" height="50" as="geometry" />
        </mxCell>
        <mxCell id="9KkhQaMvhnV2v5A0AEYg-5" value="" style="shape=partialRectangle;whiteSpace=wrap;html=1;bottom=1;right=1;left=1;top=0;fillColor=none;routingCenterX=-0.5;rotation=-180;" vertex="1" parent="1">
          <mxGeometry x="311" y="69" width="40" height="70" as="geometry" />
        </mxCell>
        <mxCell id="9KkhQaMvhnV2v5A0AEYg-6" value="" style="shape=partialRectangle;whiteSpace=wrap;html=1;bottom=1;right=1;left=1;top=0;fillColor=none;routingCenterX=-0.5;rotation=0;" vertex="1" parent="1">
          <mxGeometry x="351" y="89" width="40" height="50" as="geometry" />
        </mxCell>
        <mxCell id="9KkhQaMvhnV2v5A0AEYg-8" value="" style="shape=partialRectangle;whiteSpace=wrap;html=1;bottom=1;right=1;left=1;top=0;fillColor=none;routingCenterX=-0.5;rotation=-180;" vertex="1" parent="1">
          <mxGeometry x="391" y="69" width="40" height="70" as="geometry" />
        </mxCell>
        <mxCell id="9KkhQaMvhnV2v5A0AEYg-9" value="" style="shape=partialRectangle;whiteSpace=wrap;html=1;bottom=1;right=1;left=1;top=0;fillColor=none;routingCenterX=-0.5;rotation=0;" vertex="1" parent="1">
          <mxGeometry x="431" y="69" width="40" height="70" as="geometry" />
        </mxCell>
        <mxCell id="9KkhQaMvhnV2v5A0AEYg-10" value="" style="shape=partialRectangle;whiteSpace=wrap;html=1;bottom=1;right=1;left=1;top=0;fillColor=none;routingCenterX=-0.5;rotation=-180;" vertex="1" parent="1">
          <mxGeometry x="471" y="69" width="40" height="70" as="geometry" />
        </mxCell>
        <mxCell id="9KkhQaMvhnV2v5A0AEYg-18" value="" style="group" vertex="1" connectable="0" parent="1">
          <mxGeometry x="250" y="230" width="280" height="70" as="geometry" />
        </mxCell>
        <mxCell id="9KkhQaMvhnV2v5A0AEYg-11" value="" style="shape=partialRectangle;whiteSpace=wrap;html=1;bottom=1;right=1;left=1;top=0;fillColor=none;routingCenterX=-0.5;rotation=-180;strokeColor=#FF0000;" vertex="1" parent="9KkhQaMvhnV2v5A0AEYg-18">
          <mxGeometry width="40" height="70" as="geometry" />
        </mxCell>
        <mxCell id="9KkhQaMvhnV2v5A0AEYg-12" value="" style="shape=partialRectangle;whiteSpace=wrap;html=1;bottom=1;right=1;left=1;top=0;fillColor=none;routingCenterX=-0.5;rotation=0;strokeColor=#FF0000;" vertex="1" parent="9KkhQaMvhnV2v5A0AEYg-18">
          <mxGeometry x="40" y="20" width="40" height="50" as="geometry" />
        </mxCell>
        <mxCell id="9KkhQaMvhnV2v5A0AEYg-13" value="" style="shape=partialRectangle;whiteSpace=wrap;html=1;bottom=1;right=1;left=1;top=0;fillColor=none;routingCenterX=-0.5;rotation=-180;strokeColor=#FF0000;" vertex="1" parent="9KkhQaMvhnV2v5A0AEYg-18">
          <mxGeometry x="80" width="40" height="70" as="geometry" />
        </mxCell>
        <mxCell id="9KkhQaMvhnV2v5A0AEYg-14" value="" style="shape=partialRectangle;whiteSpace=wrap;html=1;bottom=1;right=1;left=1;top=0;fillColor=none;routingCenterX=-0.5;rotation=0;strokeColor=#FF0000;" vertex="1" parent="9KkhQaMvhnV2v5A0AEYg-18">
          <mxGeometry x="120" y="20" width="40" height="50" as="geometry" />
        </mxCell>
        <mxCell id="9KkhQaMvhnV2v5A0AEYg-15" value="" style="shape=partialRectangle;whiteSpace=wrap;html=1;bottom=1;right=1;left=1;top=0;fillColor=none;routingCenterX=-0.5;rotation=-180;strokeColor=#FF0000;" vertex="1" parent="9KkhQaMvhnV2v5A0AEYg-18">
          <mxGeometry x="160" width="40" height="70" as="geometry" />
        </mxCell>
        <mxCell id="9KkhQaMvhnV2v5A0AEYg-16" value="" style="shape=partialRectangle;whiteSpace=wrap;html=1;bottom=1;right=1;left=1;top=0;fillColor=none;routingCenterX=-0.5;rotation=0;strokeColor=#FF0000;" vertex="1" parent="9KkhQaMvhnV2v5A0AEYg-18">
          <mxGeometry x="200" width="40" height="70" as="geometry" />
        </mxCell>
        <mxCell id="9KkhQaMvhnV2v5A0AEYg-17" value="" style="shape=partialRectangle;whiteSpace=wrap;html=1;bottom=1;right=1;left=1;top=0;fillColor=none;routingCenterX=-0.5;rotation=-180;strokeColor=#FF0000;" vertex="1" parent="9KkhQaMvhnV2v5A0AEYg-18">
          <mxGeometry x="240" width="40" height="70" as="geometry" />
        </mxCell>
        <mxCell id="9KkhQaMvhnV2v5A0AEYg-20" value="$$500 \text{MHz} - \Phi_{ref}=0^{\circ}$$" style="text;html=1;align=center;verticalAlign=middle;whiteSpace=wrap;rounded=0;" vertex="1" parent="1">
          <mxGeometry x="212" y="36" width="158" height="30" as="geometry" />
        </mxCell>
        <mxCell id="9KkhQaMvhnV2v5A0AEYg-22" value="$$500 \text{MHz} - \Phi_{0}=90^{\circ}$$" style="text;html=1;align=center;verticalAlign=middle;whiteSpace=wrap;rounded=0;" vertex="1" parent="1">
          <mxGeometry x="231" y="197" width="158" height="30" as="geometry" />
        </mxCell>
      </root>
    </mxGraphModel>
  </diagram>
</mxfile>
